<svg width="44" height="106" viewBox="0 0 44 106" fill="none" xmlns="http://www.w3.org/2000/svg">
<path d="M23 1C23 0.447715 22.5523 0 22 0C21.4477 0 21 0.447715 21 1H23ZM21.2929 105.707C21.6834 106.098 22.3166 106.098 22.7071 105.707L29.0711 99.3431C29.4616 98.9526 29.4616 98.3195 29.0711 97.9289C28.6805 97.5384 28.0474 97.5384 27.6569 97.9289L22 103.586L16.3431 97.9289C15.9526 97.5384 15.3195 97.5384 14.9289 97.9289C14.5384 98.3195 14.5384 98.9526 14.9289 99.3431L21.2929 105.707ZM21 1V33H23V1H21ZM21 73V105H23V73H21Z" fill="black"/>
<path d="M8.3493 47.3636H11.105L13.7584 52.375H13.872L16.5254 47.3636H19.2811L15.0368 54.8864V59H12.5936V54.8864L8.3493 47.3636ZM22.5526 59.1705C21.6548 59.1705 20.8821 58.9886 20.2344 58.625C19.5904 58.2576 19.0942 57.7386 18.7457 57.0682C18.3973 56.3939 18.223 55.5966 18.223 54.6761C18.223 53.7784 18.3973 52.9905 18.7457 52.3125C19.0942 51.6345 19.5848 51.1061 20.2173 50.7273C20.8537 50.3485 21.5999 50.1591 22.456 50.1591C23.0317 50.1591 23.5677 50.2519 24.0639 50.4375C24.5639 50.6193 24.9995 50.8939 25.3707 51.2614C25.7457 51.6288 26.0374 52.0909 26.2457 52.6477C26.4541 53.2008 26.5582 53.8485 26.5582 54.5909V55.2557H19.1889V53.7557H24.2798C24.2798 53.4072 24.2041 53.0985 24.0526 52.8295C23.901 52.5606 23.6908 52.3504 23.4219 52.1989C23.1567 52.0436 22.848 51.9659 22.4957 51.9659C22.1283 51.9659 21.8026 52.0511 21.5185 52.2216C21.2382 52.3883 21.0185 52.6136 20.8594 52.8977C20.7003 53.178 20.6188 53.4905 20.6151 53.8352V55.2614C20.6151 55.6932 20.6946 56.0663 20.8537 56.3807C21.0166 56.6951 21.2457 56.9375 21.5412 57.108C21.8366 57.2784 22.187 57.3636 22.5923 57.3636C22.8613 57.3636 23.1075 57.3258 23.331 57.25C23.5545 57.1742 23.7457 57.0606 23.9048 56.9091C24.0639 56.7576 24.1851 56.572 24.2685 56.3523L26.5071 56.5C26.3935 57.0379 26.1605 57.5076 25.8082 57.9091C25.4598 58.3068 25.009 58.6174 24.456 58.8409C23.9067 59.0606 23.2723 59.1705 22.5526 59.1705ZM35.2231 52.7614L33.0072 52.8977C32.9694 52.7083 32.8879 52.5379 32.7629 52.3864C32.6379 52.2311 32.4731 52.108 32.2686 52.017C32.0678 51.9223 31.8273 51.875 31.547 51.875C31.172 51.875 30.8557 51.9545 30.5981 52.1136C30.3406 52.2689 30.2118 52.4773 30.2118 52.7386C30.2118 52.947 30.2951 53.1231 30.4618 53.267C30.6285 53.411 30.9144 53.5265 31.3197 53.6136L32.8993 53.9318C33.7478 54.1061 34.3803 54.3864 34.797 54.7727C35.2137 55.1591 35.422 55.6667 35.422 56.2955C35.422 56.8674 35.2535 57.3693 34.9163 57.8011C34.583 58.233 34.1247 58.5701 33.5413 58.8125C32.9618 59.0511 32.2932 59.1705 31.5356 59.1705C30.3803 59.1705 29.4599 58.9299 28.7743 58.4489C28.0925 57.964 27.6928 57.3049 27.5754 56.4716L29.9561 56.3466C30.0281 56.6989 30.2023 56.9678 30.4788 57.1534C30.7553 57.3352 31.1095 57.4261 31.5413 57.4261C31.9656 57.4261 32.3065 57.3447 32.5641 57.1818C32.8254 57.0152 32.958 56.8011 32.9618 56.5398C32.958 56.3201 32.8652 56.1402 32.6834 56C32.5016 55.8561 32.2213 55.7462 31.8425 55.6705L30.3311 55.3693C29.4788 55.1989 28.8444 54.9034 28.4277 54.483C28.0148 54.0625 27.8084 53.5265 27.8084 52.875C27.8084 52.3144 27.9599 51.8314 28.2629 51.4261C28.5697 51.0208 28.9997 50.7083 29.5527 50.4886C30.1095 50.2689 30.761 50.1591 31.5072 50.1591C32.6095 50.1591 33.4769 50.392 34.1095 50.858C34.7459 51.3239 35.1171 51.9583 35.2231 52.7614Z" fill="black" fill-opacity="0.8"/>
</svg>
